<mxfile host="app.diagrams.net" modified="2021-03-16T22:33:42.914Z" agent="5.0 (Windows)" etag="a3TIUUHGCmc7aK9FzOyF" version="14.4.8" type="github">
  <diagram id="wKhE5iakT0yeJkkmQA5J" name="Page-1">
    <mxGraphModel dx="1278" dy="520" grid="1" gridSize="10" guides="1" tooltips="1" connect="1" arrows="1" fold="1" page="1" pageScale="1" pageWidth="827" pageHeight="1169" math="0" shadow="0">
      <root>
        <mxCell id="0" />
        <mxCell id="1" parent="0" />
        <mxCell id="5MdmiLJcqV0Vw6j3BlCh-10" style="edgeStyle=orthogonalEdgeStyle;rounded=0;orthogonalLoop=1;jettySize=auto;html=1;entryX=0;entryY=0.5;entryDx=0;entryDy=0;" edge="1" parent="1" source="5MdmiLJcqV0Vw6j3BlCh-1" target="5MdmiLJcqV0Vw6j3BlCh-6">
          <mxGeometry relative="1" as="geometry" />
        </mxCell>
        <mxCell id="5MdmiLJcqV0Vw6j3BlCh-1" value="" style="rounded=1;whiteSpace=wrap;html=1;" vertex="1" parent="1">
          <mxGeometry x="120" y="210" width="120" height="50" as="geometry" />
        </mxCell>
        <mxCell id="5MdmiLJcqV0Vw6j3BlCh-4" value="" style="shape=image;verticalLabelPosition=bottom;labelBackgroundColor=#ffffff;verticalAlign=top;aspect=fixed;imageAspect=0;image=data:image/svg+xml,PHN2ZyBkYXRhLW5hbWU9IkxheWVyIDEiIHhtbG5zPSJodHRwOi8vd3d3LnczLm9yZy8yMDAwL3N2ZyIgeG1sbnM6eGxpbms9Imh0dHA6Ly93d3cudzMub3JnLzE5OTkveGxpbmsiIHZpZXdCb3g9IjAgMCA1NjYgMjAyIiBmb2N1c2FibGU9ImZhbHNlIiB3aWR0aD0iNTY2IiBoZWlnaHQ9IjIwMiI+JiN4YTsgIDx0aXRsZT4mI3hhOyAgICBwdXBwZXQtbG9nby1ibGFjayYjeGE7ICA8L3RpdGxlPiYjeGE7ICA8aW1hZ2Ugd2lkdGg9IjU2NiIgaGVpZ2h0PSIyMDIiIHhsaW5rOmhyZWY9ImRhdGE6aW1hZ2UvcG5nO2Jhc2U2NCxpVkJPUncwS0dnb0FBQUFOU1VoRVVnQUFBallBQUFES0NBWUFBQUMyZVFwK0FBQUFDWEJJV1hNQUFBc1NBQUFMRWdIUzNYNzhBQUFnQUVsRVFWUjRYdTNkQzdRbFZYM244ZlJFalJxTmlaaHUyYWViZS92UzZZNXBKV0luT2pwR0d6U2pacFJrUlludkNJN2pNektaaWMvTDhBamlLd2txSnZnZ2FEZENmSUJoVU5jb1F4Z1VpWkVnS3hpREFVUjUrT1FWVUtBMVBQcmUrZjI1ZGRlNTkzanUrZStxMmxXbkhsL1crcXpUMWRUWi8xMjdxK3I4VHAxNi9Nemk0dUxQQUFBQWRNRnc0alBoZ1lzZjJ4UmE1NUlkOS9VV0VnQUE5TU53WXZmREQ5KzdhLzFpMnl5ZUdnNzBGaElBQVBURGNJSmdBd0FBV200NFFiQUJBQUF0TjV3ZzJBQUFnSlliVGhCc0FBQkF5dzBuQ0RZQUFLRGxoaE1FR3dBQTBITERDWUlOQUFCb3VlRUV3UVlBQUxUY2NJSmdBd0FBV200NFFiQUJBQUF0TjV3ZzJBQUFnSlliVGhCc0FBQkF5dzBuQ0RZQUFLRGxoaE1FR3dBQTBITERpUkxCWm1IM2hzc1dQN0poZlZGZSt3UWJBQUFRWXpoUkt0aXN2OVFyTkluWFBzRUdBQURFR0U0UWJBQUFRTXNOSndnMkFBQ2c1WVlUQkJzQUFOQnl3d21DRFFBQWFMbmhCTUVHQUFDMDNIQ0NZQU1BQUZwdU9FR3dBUUFBTFRlY0lOZ0FBSUNXRzA0UWJBQUFRTXNOSndnMkFBQ2c1WVlUQkJzQUFOQnl3d21DRFFBQWFMbmhCTUVHQUFDMDNIQ2lUTERadGY0Mk9hY29yMzJDRFFBQWlER2NLQkZzcG9sZ0F3QUFsZzBuQ0RZQUFLRGxoaE1FR3dBQTBITERpYllHbTQrRUozb0xDUUFBK21FNDBkSmdzN0I3dzlVS04vdDVDd29BQUxwdk9OSFNZR01JTndBQXdBd25XaHhzRE9FR0FBQU1KMW9lYkF6aEJnQ0FmaHRPZENEWUdNSU5BQUQ5Tlp6b1NMQXhoQnNBQVBwcE9OR2hZR01JTndBQTlNOXdvbVBCeGhCdUFBRG9sK0ZFQjRPTklkd0FBTkFmdzRtT0JodER1QUVBb0IrR0U2ZHZlTlRpcmcxdmFvSzl1emY4dFJkVzhpTGNBQURRZmU0TVUzUHErbU84c0pJWDRRWUFnRzV6WjVncXdnMEFBTWpCbldIcUNEY0FBQ0NTTzBNakVHNEFBRUFFZDRiR0lOd0FBQUNITzBPakVHNEFBTUFFN2d5TlE3Z0JBQUJyY0dkb3BHckN6VFY3ZDIvNHl5WlkzTFhodGU0WUFBQ0FuK0xPMEZnVmhKdW1VTWc2MzExK0FBRHdVOXdaR3EyajRZWmdBd0JBTWU0TWpkZkJjRU93QVFDZ0dIZUdWdWhZdUNIWUFBQlFqRHREYTNRbzNCQnNBQUFveHAyaFZUb1NiZ2cyQUFBVTQ4N1FPaDBJTndRYkFBQ0tjV2RvcGQzcmovYkNRNU1SYkFBQUtNYWRvYlZhSEc0SU5nQUFGT1BPMEdvdERUY0VHd0FBaW5GbmFMdUZYZXV2OElKRTB4QnNBQUFveHAyaDdSUVNMdk9DUk5NUWJBQUFLTWFkb2UwSU5nQUE5SWM3UTlzUmJBQUE2QTkzaHJZajJBQUEwQi91REcxSHNBRUFvRC9jR2RxT1lBTUFRSCs0TTdRZHdRWUFnUDV3WjJnN2dnMEFBUDNoenRCMkJCc0FBUHJEbmFIdENEWUFBUFNITzBQYkVXd0FBT2dQZDRhMkk5Z0FBTkFmN2d4dFI3QUJBS0EvM0JuYWptQURBRUIvdURPMEhjRUdBSUIwQm9QQm9TR0VVeEo2Z2xjekQzZUd0aVBZQUFDUXpzYU5HLzljWVdReEZRV2x3N3lhZWJnenRCM0JCZ0NBZEFnMlUwYXdBUUFnSFlMTmxCRnNBQUJJaDJBelpRUWJBQURTSWRoTUdjRUdBSUIwQ0RaVFJyQUJBQ0FkZ3MyVUVXd0FBRWlIWUROTnAyOTQxTUt1OWJkNVFhSnBDRFlBZ0tZaTJFeUxoWnJkRzI3eVFrUVRFV3dBQUUxRnNKbUdGb2NhUTdBQkFEUVZ3YVp1TFE4MWhtQURBR2dxZ2syZE9oQnFETUVHQU5CVUJKdTZkQ1RVR0lJTkFLQ3BDRFoxNkZDb01RUWJBRUJURVd5cTFyRlFZd2cyQUlDbUl0aFVxWU9oeGhCc0FBQk5SYkNwU2tkRGplbDVzRm0zMzM3N3pXbGxQMFJlTDIvWFN2OCsyYVUvbjZ6WGQ4dVI4aEp0WEkvZHRtM2JneVBhQkNhYW5aMzlSYTEzLzBucjFTdTBYaDFyNjVsZVA2UjE3aFQ5K1NRNVh0TkhiTnEwNldsemMzUDc2VDNydkRiN1pLM3hNeXZIVDU3ZXgvSFRjbXNJQmdmTEsrVi9hYjE2WnpZdXUyei9wdi8vWi9xN1kyeU1OUDNNbVptWlIyelpzdVhudkhhbmhXQlRoUTZIR3JPd2E4UC9jOGVnSW9jZWV1alBwdVRWTTFxcDk5SEsvVks5bmlHM2VodkJtSTNpMjNLYU5yWVhhbWZ3eTE2OXFoeDc3TEgvd1J1UFBCWnIyUGw3ZmNqTHE3ZUdkVjY3ZWRpL2cxZlQ1c2srYVA1QzY5Qmwzam8yeHUxeWdkNy9acjBldUZqRHY5VUUweHEvZyt3RFRxLy9FakZlYTQzZnZEN0VIN000M2ZGTHlzWlFBZmczTlRadjB2TDlYYmFzM25pTXM5ZkcxZ0tRL3Z5OHpaczNiL0JxbDVGbi82VStuUkRSL3p4ZTZ0V2NaSFJaM0lWdG5BcEN6Y0x1OVF1THV6YjhON2QyRDJnRnV6NWlKWXltRGZ5UmE5WFNocjlURzhqSDVVNnZuUndXMU40WDlQcTg3ZHUzMzg5YjNwUlU5LzlFOUMrYTJudUpWN01NMjVGNWZjakx2clY3ZFVkbDMyRGR0bU9wdlErc1ZjcytIRFRQMFhLdDEwNGVxdms5T1Q0N0d1RXVjMG9XRHJ6KzVYVHlXclgyMzMvLzlhcDNsT2E1SnFLZGFHcnorOU1hdjFTMDdtL1BnbkxTZmVnSzk4aTV0bCtvNGtpMTJuMTNSQjhhU1o4bFQxNjVMTzdDTmdxaHBuSWg4VVk1THRqbzczNUwvKzhDNzcwSjNDQkhLK0E4eUZ2dUZBZzJ6UTAyK3J0OXNzUDllN3ozbDNTUGFuMHFMQjNGY1pjOWhUcUN6V0RwcU9vN1EvWGpaMGNwUGgxcUhMK3kxTi8vSWwrT1dMYVU3Q2pRT3l4b2V2MkxSYkNaQmtKTkxVS0Z3Y1oyam5LcTk1NEsvRUFyL3N2SEhiSk1pV0RUekdDamYvc1g2ZTl2OHQ2WDJFSzJybS95bHIrc3FvT04vY1FicGpOK0h3azFqRjlSZHI2VituaHh4TEpVYVk4RjlnTU9PT0RudmY1NkNEWjFJOVRVSmxRVWJMS2pORW5iTHVBcjJuaTNlbU5RRk1HbVdjSEdqdFRwejMvcnpWK3hQZXJESzd3eEtLT3FZSk9OM3ljajVxK1NqZDhydlRHb2svMmNxVDU5SXFMdmRicFdIKzdQOFBvK0NjR21Ub1NhV29YRTRjT0NqVjRQMTBaemx6ZHZUZTdRUnZBeWJ4eUtJTmcwSjlqSXhsRHNwT0NxbkwxMTY5YUhlV05SUkJYQkpydUtwOGhKd1pWUVh6NVYxZmpsb1hGNWdmcHlpOWZmYVZIZjNyOWp4NDc3ZXNzeERzR21Mb1NhMm9YRXdTYTdMSERCbTY5dXRnTkkvZE1Vd2FZWndVYk9WcHRYUnN4WHQydGttemNlZWFVT05oWWk1QXB2dmltNGRuWjI5bGU5OGFqQ3pwMDc3NlA2SjBiMHNRa3VMSElGRmNHbURsV0ZtbE0zVlBKdHZTdEM0bURUY0dkcmczaUFOeWF4Q0RhTkNUYU5wV1c5V2Y2ak55WjVwQTQyVFphTjMrTzlNVWxwc0hSdTRCZTh2alhNTlFvM005NnlqU3huQjRQTjUzZmVaL0dNN1E5cWhOMzc3aURVVEVmb1Y3Q3hIZVg1cVc2RVJiQWgyRVRhVTJTY0pvemZmRVROenREeS9samo5MFJ2WEZLdysyS3Azajk3Zldxb3EwT09rNis3R1d4MlAveHdMeHkwRmFFbVh1aFpzREhhb00rTXVTbVpoMkJEc0ltbFpiN0Y3bnZpalUyTXZnVWJvMlcrZGRJOXNsS3dTNmxEczg3VHlrM2pkSlUrOUIvcUxXdTJIaEZzMm9KUWswL29ZYkRKdk5jYkd3L0JobUNUaDViN08vcHdEdDc0ZVBvWWJJeVcrN3Qya3JNM1BrWFk1ZE5xLzZ0ZUgxcmljekZmM0FnMkxVR295Uy8wTjlpWTUzcmpNd25CaG1DVGw1MjdFZk9oNDR6ZnZGZW53eTVJZlJHQXJGTzdaMFhVYmcydEkyL3hscHRnMHdLRW1tSkN2NFBOajJabVpqWjdZN1FXZ2czQnBxQ2p2VEZ5eG04K29rWm42VVB0V0crTTh0QjRIdWZWYktHOTl2d3FaN2tKTmsxR3FDa3U5RHZZV0pqNGg4V0NEK1FqMkJCc0NycEhPK2JIZXVNMFlmem1JMnAwbVQzR0lzbVZablpTc3RyYkcxR3pkVFJHbDA0NnVrV3dhVEJDVFRtaDU4RW1jN2czVHVNUWJBZzJKWHlsNkU5U0JKdDdYVkowL0pidDJMSGpnUnJMcXlKcXRaYVc3MzlNV0k4SU5rMUVxQ2t2RUd6TURYTnpjdy94eG1vVXdZWmdVNFoyem9WdUhFcXdXV0xQZy9QR3lobkg5M2cxVWxDZHUrU2IrdlBmNi9VOHZWNm8xeXNIOWR5ZC9jYTFuaXRGc0drZ1FrMGFZZnJCeHA1YWU1MDJzdTlsZi9ibXI4bzd2YkVhUmJCcGJiQzVPeXc5Q2Y1YTllVm12ZDRUOFo0cTNHaEhEYnp4R2pOKzh4RnRWNmtwNDNkVDBZZEJxdDlidzlKeWVEVUtVZnZmbHJmcXowOVk2NzVaMjdkdnY1LzlGS2I1M3BXTm85dHVFV3I3VDlZWUE0Sk5reEJxMGdrMUJ4dHRUTit3ay8vMGV2QzJiZHNlUE5vZi9mMCttelp0ZXBMbVBYcFE3NU4wYjlOTzVwZTg4UnJwSzhHbUhjSEdIcXg0bWozM1o5eko0dGtIekhiTmM1aDhUUFBmRWRGbUV1clRmL2ZHYTh6NHpYdnRwcVI2UDlicjZmYlViNDNUM0JyajkyczJmcHJ2bzZIRzhSdE0rS25GR2NNenZiYUxVTHZmbFQvTWUrVlc5Z0RTNCtST3IwWUIxOXUvMFdoTnUvV0EvazBQaUtGKzdZNm9FMDN0SGVYVm5HUTAwQTRYcktYQmhsQ1RWcWdwMkdoRi9nYzV5T3ZQS0Z1SjlmN1RRdzNQbjdLTnpldlBTZ1NiWmdjYjFibFY2ODhiOUkzNUY3dytyV1R6NjMxSGhCcTJEZlh4TzNrZllsaFhzRkdkSDJvYzNsaHcvRjRiNmhtLzc0NzcwSjdFcmhieTJpM0NRbkhlc1JyWHQ4SFMwV3UzWGg1cTh6bGU3VWsyTGowRDBLMFR5MEt3VnpPUDRVUkxnNDFDVGU1dk9GaGJxSDduYzV0VzRoZDcvZkJvZy84TnRmWDFpSHBsM0pSbkowbXdhVzZ3VVkxUGJJeThBK3RhN0Z1MDJucHZxRGhVMnpkOHJ5OGo0emZ2dFZtV2Fwd2grM2g5bWNTK1ZZZWxCMGxXUFg0djhmb3lNbjVuZUczbXBUYmY1dFdOcGZWMlMwaThYN1o5bFZmWDZSUEJwa3FMcDRZRHZZVkV2SkI0QXhweHVXMmtYaDlpemM3TzNqOHNIZXIyNmhhbS9qN2I2OGN5Z2swamc0MWR1dnRxcnc5NXFMMURaRTlFN1VJMEhwLzMrakF5ZnZOZW15WFkrTDNHNjBNZWF1OVpvY0tmcHpRZVgvRDZzTXgrZmducHo2MHBmUmZ6VWRxdWZqdWtEWVQzek16TTdPdlZYUXZCcG1JRW03UkNSY0ZHSys3WDdOa3JYdjBDMW1rait5dXZmbEhxOTZjaituQXZnazNqZ3MwOSt1QjZ2bGUvQ0sxemoxUDd0MFgwb1lpRlBFOW1yakRZM0tQbGZJRlh2d2kxKzloUTRmanBTOCtzMTRlc0gzOGEwVjQwL1Z0OEtlLzVOTEhVOXJ1OCtubG8yUXVmd2tHd3FSakJKcTFRVGJDNVlXTkZ6M1RKck5PRzhmR0lmaFJ4OTlhdFd4OFcwUWVDVFdoV3NGRzdmK3pWTGtQdFB5V2svN2EvM1BjanZmb3Irakh2dFZlRTJ2MmZYdTB5MVA3Qm9icnhpem8vVHZOOTIyc3JsdHE2VS91NVgvRnFGbVg3b1pEd1NLSDZlNlpYY3kwRW00b1JiTklLNllQTndxREFTY0o1WlErdHV5S2lQN2tOSXM4Skl0ZzBKOWlVMldubm9SMzhtN3krRktIK1grVFZYbFpGc0ZHYmYrdlZUY0ZPNXZiNlVvVDZmN0ZYT3p0UHoyMHJsaDFSOFdxV2xmTG90UHA3YTlHalM3MElOZ3U3Ti96cjRta2J0eFRsdFUrd3FVOUlIR3kwd243RXE1bEs5dk5BeXQraGw1M3UxVFlFbThZRW05dFRQRFU3a2gwdHZDaWlUM250alQzWnVZSmdjMGZGUjFoWHN2SDdja1NmOHRvN2NFNTJIaXpkVjhacko0b2RyU2x6emtvczFYaU0xNWM4MU85SGV6WEg2VW13V1grcFYyZ1NyMzJDVFgxQzRtQmpHNkpYTTZWQjR2c3JaRzVZakhoK0ZNR21HY0ZHN1gzWXE1bFNoWmNMLzRGWDI2UU9OcllOZVRWVHlvNmNWUEdGNUhtVDZ1ci9YeGJSUmhTTjJTZTg1VXhGOVc3MCtwTkRvY2ZIRUd3aWVPMFRiT29URWdjYjdiUWU2ZFZNS2JzME12bEQ3T3lHWTE1dGdrMWpnczBIdkpxcHBmNjN6NWJqZlY3ZHJQYTgxMVpPSjNzMVU5TXlmQ2FpWDdsTVdnL3NhSmozL3B3TzhaWXhsY1RyMm9sZXZYRUlOaEc4OWdrMjlRa3REemJaTXB6bDlTc3ZiY2d2OHVvbTN1RVFiQXFhVXJBNTJPdFhYb1BJODJ3NkVtd09pdWhYTG1yekg5ZXFwKzM1R2Q3N1k2bk9UOVRlQTd4bFRHV1E5dEVIRjNqMXhpSFlSUERhSjlqVUozUWcyS2ptNzNyOXlrc2IzZ2xlWFlKTmY0UE40dEs1SXNtdXNNbnNpVG01c3d2QlJ0YXA3clVSZll0bWdXT3Q4VXQ1bWZjZ3gzMXpVa2g1d3JxdHMxNjlOZnBBc1BGNDdSTnM2aE02RUd6c2JzRWg4UTNBdE9HZDc5VWwyUFE2MktUK0puMnZtWm1aUjBUVW5mZmF5V2thd2NhVzQ0U0l2dVZpei94YW8xYktiZlZxdFhkbWpiNGEwYWRZZDl0K3dQdTNHVVd3aWVDMVQ3Q3BUK2hBc0RHSmQxem11cnByRGdnMmhReW1GR3hTL3J5eFlsbWU2ZFVkZENUWWFQeWVIdEczdk1hZSs2Sy92enppdmIxUTVHb3VnazBFcjMyQ1RYMUNkNExOdk5lM25OeHZOZ1NiZmdlYnVibTVoM2g5eTB2TDhpcXZiZ1hyK2xTQ2pUMHdNcVMvT21yYzR5RHNaOE9mUkx5M0Y0cGN1VXF3aWVDMVQ3Q3BUK2hJc05HRzl6dGUzL0x5N28xQ3NPbDNzREdxZjdYWHZ6d0dFUTlUN0Vxd3laYmxXeEg5eStNZG96WHNDRVhFKzNwRCs3WGY4djVkUmhGc0luanRFMnpxRTdvVGJMWjRmY3ZMN3JjeHFTYkJobUNqK3VkNC9jdGpFSEZQbVk0Rm04OUc5Qy9hWU13TlFyV083dkRlMXlmMmdFM3YzMlVVd1NhQzF6N0JwajZoSThFbWUvSzMyNzg4dERIdm5GU1RZRU93VWYxVHZQN2xvV1g1cEZlelM4SEdha2YwTDQrelJtdG9PMzV5eFB2NkpQYzllQWcyRWJ6MkNUYjFDUjBKTnRteUpMMHl5bjdlbWxTUFlFT3dVZjEzZVAzTHc5WXByMmFYZ28zOTlCYlJ2encrTjFxamlwTzgyMHhqZnFqMzd6Sm1EQWsySHE5OWdrMTlRcmVDVGNwYmoxdXdlZmFrZWdRYmdvM3FIK1AxTHc4dHkrZTltaDBMTmtkRjlDL2FZTXc5WnZSM3ovSGUxeWVEeUVkM3JFU3dpZUMxVDdDcFQraFFzTkhHOG4ydmZ6azkxNmxIc09sNXNGSHRJNzMrNVhSaFJNMzVpSGJ5bUdhd2VYTkUvNktwdlMrTjF0QSs2Zm5lKy9xRVlFT3c2YnpRcldCenE5ZS9uQ2IrRmsyd0lkaW85bHU4L3VWMGJrVE4rWWgyOHBoYXNFbDVSMkNqc1RsdnRFWVZkeVp2TTRMTjJzSG0xb1ZkRzg0b3ltdWZZRk9mMEoxZ1kvZXF1TXZyWHg3ZTFRTUVHNEtOYXIvSDYxOGVhdTlURVRYbnZYWnltbHF3MGJLOEs2Si8wZFRlcDBkcjJIYnN2YTlQQ0RZTlJMQkpLM1FrMk95Ly8vN3J2YjdscFIzaUV5ZlZKTmdRYkZUN0RLOS9lYWk5ajBYVW5QZmF5V21hd2VZVEVmMkxadTJOMXJCMTFIdGZueEJzR29oZ2sxYm9TTEJSM2QvMCtwYVg5OXdlZ2czQlJyVXY5dnFYaDlvN0thTG12TmRPVHRNTU5oZEY5QythMm52L2FBMTlLRC9LZTE4ZXF2RTJlWE5iemM3Ty9xcjM3ekptREFrMlZTTFlwQlU2RW15MDRiM002MXRlMjdadGUvQ2ttZ09DVGErRFRUYWVlN3orNVdGUGN2YnFEam9TYkxMeFMzcUxCaHViMFRxcEgzMngxb00ydTR4Z1V6R0NUVnFoSThIR1B0eTh2dVdoOW40WVVaTmcwK05nWSt1NjE3ZTg5QUh5UXE5dVY0S04xcDFmaStoYkxocWJGNCtyTlVoNFlZRjM3bDBYRVd3cVJyQkpLM1FuMkh6VDYxc2VhdTlyRVRXVEJoczc2dVRWTElOZ2s1YnEvckhYdDd5MC9Ud3BvdTY4MTA1T1V3azJXdCtQaU9oYkxtdmRMVnhqOWxYdnZiR3MzOTZ5ZFEzQnBtSUVtN1JDQjRLTi9XYnM5U3V2UWR4Sm5FbURqYnpPcTFrR3dTWXQxVDNQNjF0ZWFuT2ZpTHJ6WGpzNVRTWFlxTzY1RVgzTFpldldyUThiVjB0amRxYjMzbGo2a1ArUXQyeGRRN0NwR01FbXJkQ0JZS09ONUsxZXZ3cDRmVVRkcE1GRzdSM3YxU3lEWUpPT2FtNVU3YjFlMzNLNnpxdWIxWjZQYUN1UDJvT045aE1xbTNiOE5DN2ZXYXVlUHBqZjRMMC9sdXA4dzF1K3JpSFlWSXhnazFab2ViRFpzbVhMejZudUQ3eCtGZkJVcjNZRndlYW5MbFZOS2ZYVklhYkh3U2IxamZuTTJWN2RyUFo4UkZ0NTFCNXN0QXpIUmZRcmw4R0Vld0RaVDFUZSsvUFFlai9uTFdPWEVHd3FSckJKSzdRODJHZ0RlWlhYcHdMMmFzZjFTeEcxUHhQUlZoN1hlalhMME03cDJJZys1TkxIWUtNdy9RdURoQ2VqcmxpT04zdTFUZHVEalYxdHFHVzRKYUpmdWFqTkk5ZXF1WDM3OWdlRmhFZUl0QzI5MFZ2T0xpSFlWSXhnazFaSUhHemsxVjdOVkxMTE9HK0k2Rk11MnVndThtcWJRZUticzVuTm16ZlBlSFdMMkxsejUzM1UzMjk1OWZOcVNMRDUycUdISHZxelh0MVVWTzhFcjA5RmFDeDNlTFd6K3ZOZVd6bGRWdlA0L1VWRW4zS3plMWs1ZFpQZE0wZHRYYVUyMTNuTG1vcUN4ZU5VOHlsbFdUdGVyVFhxSncwMklmSG54SENDWUlQRjlNRkdHOC9OTVVjN1VsQzl2L2I2VTRROXY4YXJiYlNzdTcyMjhsS2J4M2wxaTFDN3IvUnFGOUdFWUdQVTVxdTh1aW5vdy9NM1ZPOXVyejhGM0xnWStVRlpRYkF4ci9IcXBtRGhiWkQ0MFNmRzlqdDJEcGt6YmtrZnVLbjl4Tzk3eTV1QzdVL1Y5enU5L2tTSytybHpWT3BnbytVNXlxdVp4M0NDWUlQRjlNRW1XMm50dCs2b25YUlJWVDZ4Vi8xL3ZGZC9jV25zVHZUYXlrdTF2NitkeUFPODJubk16TXpzR3lvNHNtV2FFbXprZHJzdmlsZTdqTm5aMlY4Y0pMNnR3QXAvNDlWZlZsR3d1YVBxbjVIdENLdjZmbFZFWDRyNHFGZS9ndnZtWEw1ang0NzdlblhMMHY3ZzVSRjlpVEtZOEhPZDA0Yy84OXJPWTVENGZNTGhCTUVHaTlVRW0yekZyZXdLSDIxa1QxYjcvKzcxb2FCckZ5TkRtZVo5WFVSN3VXblozdVBWam1VN1hyWDU5MTdOb2hvVWJPNjlXc1dlR2ViVkw4TENwbXBjNlBXaGhHZDVmVmd4ZnZNUjdlVm1vYU9xOFZNb3ZMOXFmTkhyUXdtSGVIM0l4dTdLaUxieU9NYXJXY2IyN2R2dmx6Sk0yODlSWHMxeEJ1bFA5cjdCZmg3MzZzWWFUaEJzc0ZoZHNNbTgzYXVmbHo1Z2ZpY2t2ZzM3U25sK0N0TDh6L1hhSzJnaDVQaWdXOHNCQnh6dzgxcWV6MGJVSzZ4SndTWnp1ZGFSZ2RlSFBPeW5BTFY3UVVUdG9uTHQ1S3NLTmtadFh5RWJ2VDdra1IzcCtvSlh1NFFiWTQrY2hQUmZSdTdXc2gzczFTM0tUbEtPNkVPc08rd3FVcS9tT0tsL3hqT0ROZTRTWGNSd1l2ZStPL2J1M3ZDMnRsazhiV1pmYnlFUkwxUWJiTXovMXNiNVVLOGZIanU1VVcwZExmZEUxQ3hNZmQzaTlXV1pOc3hIZSswVnBiYnZVbDllNFBWaExkbGg5MHU4T21VMU1OaVlIMnphdE9rL2UvMklrWjIwV2RYUEovZFMrKy8yK2pFeWZ2TmVteVZkci9GN210ZVBHQnEveDlxUnRJaWFaWnpvOVdORmZ4NnEvdndrb3Mxb2F1K1dtWm1aeDNpMTgxTGJUdzFweitjcWRINk4wYmo5VVVUN3VXamN2bS8zTS9KcXIyWGxzL3pjbWRFdm9mcGdzM3pleU11S1hubGh6MlpSRzVkNmRSSTR4K3ZMU3ZZdGNWRGRUMkxHanR5Y2t1Y0loTTFydjRjUEtqaEJjNXlHQmh1em9Eb2YxdXNtcnovamJONjhlWVBlZjFKSSs4RXl6bDdWMmVyMVoyVDg1aVBhTGN2R2I5ZmMzTngrWG4vV0dqK3RoMzhWYWhpL3ZFK3JIbFJ6MHYrdHFjSzBVWnRQVlpzLzlPcm1vZmIrMEt1N0ZpM2I3M3J0Ri9SMWhjSkhlUFdYWlRjWnRiRTVYNitITC8rOSswYjBTNmdoMkN6VHl2aE5PVklyOG1hdlgzYlpzOTd6bXBvQ3piM3MzQjJ2WDZQVXYzLzAyaTFyc0hSRnhGbnEzMy9WbjMvZDdxT2kydXZzNXdzN0o4S3UxTkgvTzBMLzc5T2g0aU5hb3hvY2JPNWx3Vk5PMDUrZjZ2M2NZK2ZSeU5NMTcra1ZCOWFWL1R2REc2OHg0emZ2dFp2Szh2alpsNHZZOGJQNUI0bVBpa3pvM3llOThScVZQWUtsaXUxa3IxMDlwQzg4RC9UNk1LRnY5OWN5SFZWQi8zNVVwbDk2LzRFUk5RcXhkVVUrYVB1U2NUK1YyY1VQRnF3MHo3dmt1eXZlUzdEQmVLSEdZTE9TVnREdjZQVXN2WjRrYjVHMzJUZTh3ZExkZksveDNwK2E2bjdKRzZ0eDlMN2p2Yllyc3BEeDVxdFUwNFBOU3FyNzQ3QjBBdkFwMlZHdDQyeG5xZW5UNVpLNndzeUkzT2NNMWhsc1Zsb2VQNDNkaDVveWZySDMvaGtWS3JwVlJPWjZqYzhiN0tpVjE0OWw5Z1hGZnU3SjlvdGUrN21wM2ZkNWZaZ2s5UTBPSi9UenJtd012aTdYaGNublV4SnNNRjZZVXJCcEdtMU1CM2xqTlk3ZTkzaXY3UzVyVTdCcG1pSkhHN0x4bS9mYTdvbXp2TEdhTUlZYkI5VWZWYktqTGw5VW5iY3F0THpJOWpGMkUwRnRNMC9jdUhRUnhPSDZ1M2VIcGF2RlVoK2hXZFdQUE9jT3JpVXNoUTJ2VnAwSU5oZ3ZFR3hLM1ZQQmZ2T3Q2bHRXR3hCc0N0dFQ5UHdWZ3MzUzBhTlovZWVObFRPT3lhLzBhU0l0NTZuZVdNU3dJM1ZlclpvUmJEQmVJTmpjTVNoNWVhczIrRCtOcU5OSkJKdGliQXk4Y1pvd2Z2TmUrejF3dERkT0hydVlRV041Y1VTdDFySUFHSE5PWXd6dDUzN2ZxMWN6Z2czR0N6MFBOb01FdCtKWE81c0dOVjJGMURRRW0veTAvUDlrTjE3enhtbkMrTTE3TmJwTXkzOXAwZnV4akxJcmNtcjRTV3BxYkYzeHhpQ1duWHc4V0RyUHlxMWJFNElOeGdzOURqWkZ6M0VZUjIxOTBLdlhSUVNiM0c3WE45OWY4Y2JJR2IvNWlEcGRkZnNnNStYeEhyWDM0b2k2cmFQbCttcVpBTDNHV08zeTZ0YUlZSVB4UW4rRHpUVjJSMVJ2ZkdJTjZqa1pzWEVJTnZrbzFMelFHeDlQbjRQTklPSGRhbGRTMjIvM2FyZk1iYWtEb0JsVWVGUFNBZ2cyR0MvME1OaG80N3c1NzAyOVlxanQxM3UxdTRaZ0UwK2g1bGh2YkdMME5kall1V3plMkJTVlhRUndodGVIbHJENzZUemJXK2FpMVA1WkVYMm9BOEVHNDRYK0Jaczd0TkUvemh1WElyS1RFUytLNkVObkVHemlhSm5mNzQxTHJENEdHeTN6Qjd4eEtjdHVRS2hhSC9YNjBnS3Y4WmExREczemM0TXAzTE5vRElJTnhndjlDalkvR2hTOFgwMHMxZGdVbWp1bUM2bDNTQVNiS0tmWUVRRnZYR0wxTGRqWVpjWXB4MitTN01qTkxxOVBUYVd4ZXFPM2pDbW96bXU5dnRTQVlJUHhRdUlQWWUwVS90bWJaeHJVcisvSnIzdmprY0pnNmFaOWU3dysxV3hCTzZPWHEyOVhSc3diclNIQjVsOUQ5YzhrS2lUVnowOGo0emZ2MWMycHllTlgyYzlQazlpZGcwTzFOODFMN1c2dEY0ZDV5NVZTQTM2Nkk5aGd2SkE0Mk5oemkvUjZqamRmbmJRQlhsejBabWhGYVJ5ZXBOcTNlWDJyZzViL3p1V2RYaGVEamYxTW9kZm5oV1o5RU5uOWtWN2lqVVVSRlFTYms5WG1INFJtaFpzOWRYOVFqeG5uZzlTUEd5TDZPbFgycFUxQmJLZTNQS25aSmZlcS8zKzkvbFdJWUlQeFF2cGc4OGpzcWRmdjgrYXR3VDNxeC9IZXcvdXFZaUZQOWI4ZDBjOHFYYjh5ZkhRMTJHVHRQa1Z1OXVhdndWY0dGVnlSc21MODVpUDZrTWZKV2J2MlFYNVR4UHhWdTBTMmVlTlFCMzE0LzdMRzVkU0lQay9MMlZ1M2JuMll0eHhWc1FlZlR2SElEY0VHNDRVS2dzMXkyL3J6ODhQMGRwUmZrU2Q0eTE4MTIrbG93LzlzUkgrVFU5MlAyNDU1WlgrNkhHeE05bFQ0YzczM1ZNUXVzWjJ2T2toWEZXeU1IZGtNMC9zV2J1TjNwSDB4OHNhZ2Jsbm91eXhpR1dxaC9ueExyOC95K2wyVGRRbzRiMUtmN3ZUNm5SakJCdU9GQ29PTnNRLzJzUFFrM2JvT2MxOXRnVXExMTNuTFhpZjE2N2wyeURpaS82V3B6ci9JTThmMW8rdkJaa1VOdStuYWRkNTdVMUN0dSt6SjlLTWhzaXBWQnB0bDl0REdVTlA0aGFYelEwNnlKMXg3eXo1TmRtS3hYVWF0dnY1VHhESlZ3Z0tOdkNMVm5aZFR5dTdpZkw2M0RBa1JiREJlcURqWUxOUGY3NitWL3NPRGFtN0piVmY3L0ozdGRLcit0bHlHM1pJOHU1cmdtb2hsS3VJU0MzV1RyaURwUzdBeGR0ZFYvZjlYNi85ZjViVlJ4R0RwNGFkSGE4eUR0OHdwMVJGc2xzZFB0VjRsMzRob0k3ZHMvSTdSTmpId2xybHB0TjcvdHZwL212cC9oN2VjWlZsd2xrL1pzNXJzbGhKZTM2Wk4vWHl5K3YwNTJlc3RXMUVhajM5YmVWNlIyeW4wUzZncDJDeXp1LzFxdmxmTEJZTVN6MWZTZS85ZHp0T2ZYNjhWZkl1M25FMWk0VXZqOUxRczZQMmJ0NnpPT0h4VHJ5ZnE5ZEZlWFpNOXlPN3dWS2FvOWQwQUFBTVpTVVJCVklwOHk2NHIyS3hnaDhwM2FyN2RvZVRKb05tSC9GK3F2V2RNNjBPbXJtQ3prbjFZRFpZdWd5NjF2OGhDNWxUSEx5WDdzbUpmSnJKMTZ4cHYrWE80VVQ2cWRnK3I2MGhnYWhiNDFmOC8wWEtjTzBoelYvWWIxYzdIYmJ4dDNGZldjanVEZmdrbGQxU2p2R0N6MHJadDJ4NnM5eHhpbDhScWhmM2tZT2tuRlB1NXhyNEY3YzNDeXkzMllTTG55MG1hOTQvMGV2RG9pdDFpNjJ6TTdGSnMremxqc0hRK3p1WFp2OHZ0WWVsS0g3dDAvQWY2ZjFmbzlYTjZQVUd2TDdXallCSHROODRVZ3MxSzYyWm1aaDZqc1Q0aUxGME45Q1c5WHAwRnpMc3o5andpTytuYlRtSzFENWVqNURtcG5wSmMxalNDelFyck5QK0JkdVJSL2ZqZ2hQR3pvekdYNlBWalRSdS9LdGs1U2xyV1ErM2ZTRDZzTWJoUXIxZG0rN1VmaGFVTEd1N00vbXpiK09XYVBtK3dGSXlPMFRiOWUxMGNKL3ZwekxZN0xlZGhXczYzRDVaT3lMYkE4Mlc1TkN5ZHYyVGIyeGZsSFAzZG1YcDlyN3hPRHRFWDR0bEo3YnNkUUwrRUtRWWI5Tk9VZzAzclRUbllBSTNqem9CK0NRUWIxSXhnVXc3QkJsak5uUUg5RWdnMnFCbkJwaHlDRGJDYU93UDZKUkJzVURPQ1RUa0VHMkExZHdiMFN5RFlvR1lFbTNJSU5zQnE3Z3pvbDBDd1FjMElOdVVRYklEVjNCblFMNEZnZzVvUmJNb2gyQUNydVRPZ1h3TEJCalVqMkpSRHNBRldjMmRBdndTQ0RXcEdzQ21IWUFPczVzNkFmZ2tFRzlTTVlGTU93UVpZelowQi9SSUlOcWdad2FZY2dnMndtanNEK2lVUWJGQXpnazA1QkJ0Z05YY0c5RXNnMktCbUJKdHlDRGJBYXU0TTZKZEFzRUhOQ0RibEVHeUExZHdaMEMrQllJT2FFV3pLSWRnQXE3a3pvRjhDd1FZMUk5aVVRN0FCVm5OblFMOEVnZzFxUnJBcGgyQURyT2JPZ0g0SkJCdlVqR0JURHNFR1dNMmRBZjBTQ0Rhb0djR21ISUlOc0pvN0Evb2xFR3hRTTRKTk9RUWJZRFYzQnZSTElOaWdaZ1NiY2dnMndHcnVET2lYUUxCQnpRZzI1UkJzZ05YY0dkQXZnV0NEbWhGc3lpSFlBS3U1TTZCZkFzRUdOU1BZbEVPd0FWWnpaMEMvQklJTmFrYXdLWWRnQTZ6bXpvQittWjJkZmJqQ1NFaGw1ODZkOS9GcW90KzJiOS8rSUc4OXltTnVidTRoWHMwdVlmeUExZHdaQUFBQTJ1TC9BN0dBdnAvR2UwNlVBQUFBQUVsRlRrU3VRbUNDIiBzdHlsZT0iaXNvbGF0aW9uOmlzb2xhdGUiLz4mI3hhOzwvc3ZnPg==;" vertex="1" parent="1">
          <mxGeometry x="130" y="220" width="83.87" height="30" as="geometry" />
        </mxCell>
        <mxCell id="5MdmiLJcqV0Vw6j3BlCh-5" value="&lt;font style=&quot;font-size: 14px&quot;&gt;Master&lt;/font&gt;" style="text;html=1;strokeColor=none;fillColor=none;align=center;verticalAlign=middle;whiteSpace=wrap;rounded=0;" vertex="1" parent="1">
          <mxGeometry x="160" y="270" width="40" height="20" as="geometry" />
        </mxCell>
        <mxCell id="5MdmiLJcqV0Vw6j3BlCh-6" value="" style="rounded=1;whiteSpace=wrap;html=1;" vertex="1" parent="1">
          <mxGeometry x="330" y="110" width="120" height="100" as="geometry" />
        </mxCell>
        <mxCell id="5MdmiLJcqV0Vw6j3BlCh-7" value="Group : Database" style="text;html=1;strokeColor=none;fillColor=none;align=center;verticalAlign=middle;whiteSpace=wrap;rounded=0;" vertex="1" parent="1">
          <mxGeometry x="340" y="210" width="110" height="20" as="geometry" />
        </mxCell>
        <mxCell id="5MdmiLJcqV0Vw6j3BlCh-8" value="" style="rounded=1;whiteSpace=wrap;html=1;" vertex="1" parent="1">
          <mxGeometry x="330" y="250" width="120" height="100" as="geometry" />
        </mxCell>
        <mxCell id="5MdmiLJcqV0Vw6j3BlCh-9" value="Group : WebServer" style="text;html=1;strokeColor=none;fillColor=none;align=center;verticalAlign=middle;whiteSpace=wrap;rounded=0;" vertex="1" parent="1">
          <mxGeometry x="340" y="350" width="110" height="20" as="geometry" />
        </mxCell>
      </root>
    </mxGraphModel>
  </diagram>
</mxfile>
